<svg id="Layer_1" data-name="Layer 1" xmlns="http://www.w3.org/2000/svg" viewBox="0 0 205.18 26.02"><defs><style>.cls-1{fill:#fff;}.cls-2{isolation:isolate;}</style></defs><title>GallupAccess</title><path class="cls-1" d="M16.7.51,17.1,6h-1c-.4-2-.8-2.6-1.6-3.3a5.89,5.89,0,0,0-4.3-1.6,5.93,5.93,0,0,0-5.4,2.8,10.58,10.58,0,0,0-1.6,5.7,11.31,11.31,0,0,0,1,4.9A7.47,7.47,0,0,0,7,17.71a6.43,6.43,0,0,0,3.5,1,6.45,6.45,0,0,0,2-.3,7.71,7.71,0,0,0,1.9-.8v-4a3.57,3.57,0,0,0-.2-1.5,1.58,1.58,0,0,0-.7-.7,3.22,3.22,0,0,0-1.6-.2v-1h7.3v1h-.4a1.54,1.54,0,0,0-1.5.8,2.54,2.54,0,0,0-.3,1.6v4.5a11,11,0,0,1-3.1,1.2,12.2,12.2,0,0,1-3.4.4c-3.6,0-6.4-1.2-8.3-3.5a9.34,9.34,0,0,1-2.1-6,9.67,9.67,0,0,1,1.2-4.7,9.9,9.9,0,0,1,3.9-4.2A9.62,9.62,0,0,1,10.1.11a11.08,11.08,0,0,1,1.9.2c.6.1,1.4.4,2.4.7.5.2.6.2.8.3a.62.62,0,0,0,.7-.2,1.27,1.27,0,0,0,.1-.6Z"/><path class="cls-1" d="M28.1.51l-6.5,15a6.57,6.57,0,0,1-1.5,2.4,2.67,2.67,0,0,1-1.6.6v.8h6v-.7a3.38,3.38,0,0,1-1.8-.4.81.81,0,0,1-.4-.8c0-.4.2-.6.5-1.4l1.3-2.9h7.3l1.1,2.7a4.59,4.59,0,0,1,.6,1.6.91.91,0,0,1-.4.8,3.94,3.94,0,0,1-1.5.4v.8H53.3l1.6-5.1-.9-.2a14.52,14.52,0,0,1-1.4,2.6,4.19,4.19,0,0,1-1.6,1.1,6.55,6.55,0,0,1-2.6.4H47a10.45,10.45,0,0,1-2.2-.1,1,1,0,0,1-.5-.4,5.14,5.14,0,0,1-.2-1.6v-12a3.84,3.84,0,0,1,.2-1.6c.1-.3.4-.5.8-.7a5.15,5.15,0,0,1,2.1-.3v-1H38.7v1h.7a2,2,0,0,1,1.6.6c.3.3.4.5.4,1.7v12.1a3.12,3.12,0,0,1-.3,1.8c-.3.5-1.5.6-2.4.7a2.7,2.7,0,0,1-1.9-.5,5.46,5.46,0,0,1-1.4-2.2L29,.51Zm-3.6,11.1,3.2-7.3,3.2,7.3Z"/><path class="cls-1" d="M70.9,14l1,.2-1.6,5.1H55.6v-.9h.7a1.88,1.88,0,0,0,1.7-.8c.2-.3.3-.6.3-1.7v-12c0-1.2-.1-1.4-.4-1.7a2.11,2.11,0,0,0-1.6-.6h-.7v-1h8.5v1a5.15,5.15,0,0,0-2.1.3c-.4.2-.7.4-.8.7S61,3,61,4.11V16a5.14,5.14,0,0,0,.2,1.6,1,1,0,0,0,.5.4,9.88,9.88,0,0,0,2.2.1h1.4a5.54,5.54,0,0,0,2.5-.5,4.19,4.19,0,0,0,1.6-1.1A7.75,7.75,0,0,0,70.9,14Z"/><path class="cls-1" d="M90.2.51H84v1h.7a2,2,0,0,1,1.6.6c.3.3.4.6.4,1.8v7.6a13.08,13.08,0,0,1-.5,4.2,5,5,0,0,1-2,2.1,7.31,7.31,0,0,1-3.3.8,5.36,5.36,0,0,1-2.4-.5,3.24,3.24,0,0,1-1.5-1.3,4.4,4.4,0,0,1-.7-2.2,12.89,12.89,0,0,1-.3-2.5V3.91c0-1.1.1-1.3.3-1.6a1.83,1.83,0,0,1,1.7-.7h.7v-1H70.6v1h.7a1.75,1.75,0,0,1,1.5.6A2.4,2.4,0,0,1,73.3,4v7.3a15.72,15.72,0,0,0,.4,4.6,5.48,5.48,0,0,0,2.3,2.9,8.58,8.58,0,0,0,4.7,1.1,8.31,8.31,0,0,0,4.5-1.1,5.23,5.23,0,0,0,2.2-2.7,12.54,12.54,0,0,0,.6-4.4V4c0-1.1.1-1.4.5-1.9a1.83,1.83,0,0,1,1.5-.6h1.5a1.75,1.75,0,0,1,1.5.6c.3.3.5.6.5,1.8V16c0,1.1-.1,1.4-.3,1.7a1.88,1.88,0,0,1-1.7.8h-.7v.9h8.1v-.9h-.7a2,2,0,0,1-1.6-.6c-.3-.3-.4-.6-.4-1.8V11a11.56,11.56,0,0,0,1.7.1h1.3a7.62,7.62,0,0,0,4.6-1.4,4.73,4.73,0,0,0,1.9-3.8,5,5,0,0,0-1.1-3.3A4.87,4.87,0,0,0,102.2,1a16.71,16.71,0,0,0-4.5-.4Zm10.9,8.8a5.69,5.69,0,0,1-2.4.8H97.3c-.5,0-.9-.1-1.3-.1V1.81a15.41,15.41,0,0,1,1.9-.2,6.87,6.87,0,0,1,2.2.3,3.62,3.62,0,0,1,1.9,1.3,4,4,0,0,1,.8,2.7A4.08,4.08,0,0,1,101.1,9.31Z"/><path class="cls-1" d="M109,3.31a1.61,1.61,0,0,1-1.1.5,1.43,1.43,0,0,1-1.1-.5,1.61,1.61,0,0,1-.5-1.1,1.61,1.61,0,0,1,.5-1.1,1.46,1.46,0,0,1,2.2,0,1.61,1.61,0,0,1,.5,1.1A1.61,1.61,0,0,1,109,3.31Zm-2.2-2.1a1.28,1.28,0,0,0-.4,1,1.28,1.28,0,0,0,.4,1,1.45,1.45,0,0,0,2,0,1.28,1.28,0,0,0,.4-1,1.28,1.28,0,0,0-.4-1,1.45,1.45,0,0,0-2,0Zm1,.1a.75.75,0,0,1,.5.1c.2.1.3.2.3.4a.52.52,0,0,1-.2.4c-.1,0-.2.1-.3.1.1,0,.2.1.3.2a.37.37,0,0,1,.1.3v.3h-.3v-.3a.52.52,0,0,0-.2-.4c-.1,0-.2-.1-.3-.1h-.2V3h-.3V1.31Zm.4.2c-.1,0-.2-.1-.4-.1h-.3V2h.6c.1,0,.2-.1.2-.3A.35.35,0,0,1,108.2,1.51Z"/><g class="cls-2"><path class="cls-1" d="M124.13.63h1.94l7.61,19.28h-1.78L129.59,14h-9.07l-2.3,5.89h-1.73ZM129,12.51,125,2.44l-3.92,10.07Z"/><path class="cls-1" d="M147.41,15.38A6.13,6.13,0,0,1,145.54,19a5.72,5.72,0,0,1-4,1.31,6.91,6.91,0,0,1-2.7-.5,5.23,5.23,0,0,1-2-1.46,6.67,6.67,0,0,1-1.24-2.31A10,10,0,0,1,135.2,13a9.69,9.69,0,0,1,.46-3.08A6.88,6.88,0,0,1,137,7.6a5.63,5.63,0,0,1,2-1.5,6.7,6.7,0,0,1,2.71-.53,5.41,5.41,0,0,1,3.66,1.17,5.7,5.7,0,0,1,1.8,3.31l-1.51.38a6.79,6.79,0,0,0-.46-1.4,3.78,3.78,0,0,0-.76-1.11,3.3,3.3,0,0,0-1.15-.73,4.47,4.47,0,0,0-1.63-.27,4.68,4.68,0,0,0-2.16.46A4.28,4.28,0,0,0,138,8.64a5.2,5.2,0,0,0-.86,1.9,10.12,10.12,0,0,0-.27,2.4,10.11,10.11,0,0,0,.27,2.4,5.62,5.62,0,0,0,.84,1.92,3.94,3.94,0,0,0,1.47,1.27,4.75,4.75,0,0,0,2.17.46,3.9,3.9,0,0,0,3-1,5.19,5.19,0,0,0,1.26-2.63Z"/><path class="cls-1" d="M162.36,15.38A6.13,6.13,0,0,1,160.5,19a5.72,5.72,0,0,1-4,1.31,6.91,6.91,0,0,1-2.7-.5,5.23,5.23,0,0,1-2-1.46,6.67,6.67,0,0,1-1.24-2.31,10,10,0,0,1-.43-3.05,9.69,9.69,0,0,1,.46-3.08,6.88,6.88,0,0,1,1.3-2.35,5.63,5.63,0,0,1,2-1.5,6.7,6.7,0,0,1,2.71-.53,5.41,5.41,0,0,1,3.66,1.17,5.7,5.7,0,0,1,1.8,3.31l-1.51.38a6.79,6.79,0,0,0-.46-1.4,3.78,3.78,0,0,0-.76-1.11,3.3,3.3,0,0,0-1.15-.73,4.47,4.47,0,0,0-1.63-.27,4.68,4.68,0,0,0-2.16.46A4.28,4.28,0,0,0,153,8.64a5.2,5.2,0,0,0-.86,1.9,10.12,10.12,0,0,0-.27,2.4,10.11,10.11,0,0,0,.27,2.4,5.62,5.62,0,0,0,.84,1.92,3.94,3.94,0,0,0,1.47,1.27,4.75,4.75,0,0,0,2.17.46,3.9,3.9,0,0,0,3-1,5.19,5.19,0,0,0,1.26-2.63Z"/><path class="cls-1" d="M177.16,16.27a4.73,4.73,0,0,1-1.73,2.94,6.22,6.22,0,0,1-4,1.13,5.81,5.81,0,0,1-4.66-1.93,7.87,7.87,0,0,1-1.66-5.31,10.14,10.14,0,0,1,.47-3.24,6.75,6.75,0,0,1,1.32-2.36,5.52,5.52,0,0,1,2-1.44,6.4,6.4,0,0,1,2.52-.49,6.51,6.51,0,0,1,2.75.53A5,5,0,0,1,176,7.53a5.76,5.76,0,0,1,1,2.15,10.58,10.58,0,0,1,.32,2.67v1H166.71a8.06,8.06,0,0,0,.3,2.23,5.31,5.31,0,0,0,.89,1.81,4.25,4.25,0,0,0,1.49,1.21,4.53,4.53,0,0,0,2.05.45,6.76,6.76,0,0,0,1.78-.2,3.45,3.45,0,0,0,1.21-.58,2.94,2.94,0,0,0,.77-.88,4.62,4.62,0,0,0,.45-1.12ZM175.78,12a8.34,8.34,0,0,0-.24-2.08,4.63,4.63,0,0,0-.76-1.63,3.4,3.4,0,0,0-1.35-1.07,4.84,4.84,0,0,0-2-.38,4.28,4.28,0,0,0-3.24,1.27A6.33,6.33,0,0,0,166.74,12Z"/><path class="cls-1" d="M181.51,16a3.22,3.22,0,0,0,1.38,2.29A5.83,5.83,0,0,0,186,19a4.26,4.26,0,0,0,2.86-.76,2.44,2.44,0,0,0,.84-1.89,3.6,3.6,0,0,0-.11-.9,1.86,1.86,0,0,0-.42-.77,2.41,2.41,0,0,0-.89-.59,7.22,7.22,0,0,0-1.5-.41l-1.7-.27a15.55,15.55,0,0,1-2-.46,5,5,0,0,1-1.49-.71,2.87,2.87,0,0,1-.92-1.11,3.83,3.83,0,0,1-.31-1.63,3.42,3.42,0,0,1,.41-1.66,3.67,3.67,0,0,1,1.11-1.24,5.36,5.36,0,0,1,1.66-.77,7.6,7.6,0,0,1,2.07-.27,8.58,8.58,0,0,1,2.39.28,4.54,4.54,0,0,1,1.57.77,3.55,3.55,0,0,1,.95,1.13A6.55,6.55,0,0,1,191,9.14l-1.43.3a5.89,5.89,0,0,0-.5-1.09,2.61,2.61,0,0,0-.71-.78,3.15,3.15,0,0,0-1.08-.47,8.16,8.16,0,0,0-3.43,0,3.32,3.32,0,0,0-1.17.55,2,2,0,0,0-.63.81,2.46,2.46,0,0,0-.19.95,3.29,3.29,0,0,0,.11.88,1.44,1.44,0,0,0,.43.69,2.73,2.73,0,0,0,.9.51,8.68,8.68,0,0,0,1.53.38l2.13.35a6.72,6.72,0,0,1,3.27,1.31,3.56,3.56,0,0,1,1.08,2.85,3.63,3.63,0,0,1-.34,1.54,3.45,3.45,0,0,1-1,1.25,5,5,0,0,1-1.66.84,7.73,7.73,0,0,1-2.29.31,10.56,10.56,0,0,1-2.33-.24,5.61,5.61,0,0,1-1.85-.76A4,4,0,0,1,180.56,18a4.62,4.62,0,0,1-.59-2Z"/><path class="cls-1" d="M195.38,16a3.22,3.22,0,0,0,1.38,2.29,5.82,5.82,0,0,0,3.08.68,4.25,4.25,0,0,0,2.86-.76,2.44,2.44,0,0,0,.84-1.89,3.64,3.64,0,0,0-.11-.9,1.86,1.86,0,0,0-.42-.77,2.42,2.42,0,0,0-.89-.59,7.23,7.23,0,0,0-1.5-.41l-1.7-.27a15.57,15.57,0,0,1-2-.46,5,5,0,0,1-1.48-.71,2.85,2.85,0,0,1-.92-1.11,3.83,3.83,0,0,1-.31-1.63,3.41,3.41,0,0,1,.41-1.66,3.66,3.66,0,0,1,1.11-1.24,5.37,5.37,0,0,1,1.66-.77,7.61,7.61,0,0,1,2.07-.27,8.58,8.58,0,0,1,2.39.28,4.56,4.56,0,0,1,1.57.77,3.55,3.55,0,0,1,.95,1.13,6.55,6.55,0,0,1,.53,1.38l-1.43.3a5.89,5.89,0,0,0-.5-1.09,2.61,2.61,0,0,0-.72-.78,3.14,3.14,0,0,0-1.08-.47,8.16,8.16,0,0,0-3.43,0,3.33,3.33,0,0,0-1.17.55,2,2,0,0,0-.63.81,2.45,2.45,0,0,0-.19.95,3.29,3.29,0,0,0,.11.88,1.43,1.43,0,0,0,.43.69,2.74,2.74,0,0,0,.9.51,8.7,8.7,0,0,0,1.53.38l2.13.35a6.72,6.72,0,0,1,3.27,1.31,3.56,3.56,0,0,1,1.08,2.85,3.61,3.61,0,0,1-.34,1.54,3.43,3.43,0,0,1-1,1.25,5,5,0,0,1-1.66.84,7.73,7.73,0,0,1-2.29.31,10.57,10.57,0,0,1-2.34-.24,5.62,5.62,0,0,1-1.85-.76A4.06,4.06,0,0,1,194.44,18a4.61,4.61,0,0,1-.59-2Z"/></g></svg>