<svg xmlns="http://www.w3.org/2000/svg" fill="none" viewBox="0 0 100 100" id="Computer-Guy-Meme-Hand-Drawn--Streamline-Memes"><desc>Computer Guy Meme Hand Drawn Streamline Element: https://streamlinehq.com</desc><path fill="currentColor" fill-rule="evenodd" d="M83.1179 8.43177c-4.4677 -1.449 -7.317 -2.49897 -18.368 -0.22378 -3.2502 0.65005 -6.2451 1.62519 -8.8453 3.57531C48.104 18.2839 44.5287 32.91 48.104 41.6858c5.2004 13.6511 22.1018 22.1018 35.4279 14.6262 3.5753 -1.9502 6.5006 -5.2004 9.1008 -8.4506 5.5014 -6.8768 9.0153 -16.8767 6.5005 -25.6773 -1.6251 -5.2004 -7.8006 -11.0508 -13.0011 -13.32599 -0.65 -0.32502 -0.975 0.65002 -0.325 0.97505 2.2752 0.97504 4.2254 2.27514 6.1755 4.22534 12.3704 12.3701 3.8538 31.7464 -9.1007 40.6284 -12.3511 6.8255 -27.9523 -1.3001 -32.8277 -13.9762 -3.2503 -8.4507 0 -22.1019 7.1506 -28.2774 3.5753 -2.92521 14.3011 -4.55031 19.1765 -4.22528 2.2752 0.32503 4.2254 0.65004 6.5006 1.30009 0.65 0.32503 1.0829 -0.80164 0.236 -1.07634Z" clip-rule="evenodd" stroke-width="1"></path><path fill="currentColor" fill-rule="evenodd" d="M59.8051 29.9856c0 0.325 -1.6251 2.9252 -1.9501 3.2503 -0.6501 0.325 -0.0001 1.3 0.65 0.65 1.419 -0.9068 2.2039 -2.056 2.2752 -3.9003 0 -0.325 -0.8001 -0.5526 -0.9751 0Z" clip-rule="evenodd" stroke-width="1"></path><path fill="currentColor" fill-rule="evenodd" d="M62.7305 29.985c0 0.65 0 1.0754 0.2171 1.9437 0.325 1.3001 1.083 2.2816 2.7081 2.6066 0.65 0.325 0.9751 -0.6501 0.325 -0.9751 -0.975 -0.6501 -1.6251 -2.2752 -2.2751 -3.9003 -0.3251 -0.65 -0.9751 -0.3249 -0.9751 0.3251Z" clip-rule="evenodd" stroke-width="1"></path><path fill="currentColor" fill-rule="evenodd" d="M65.9804 29.9852c1.3001 4.2253 6.5005 2.2751 11.0509 0.65 1.6251 -0.6501 4.2254 -1.6251 6.8256 -2.9252 0.65 -0.3251 0.325 -1.3001 -0.3251 -0.9751 -4.2253 1.6251 -9.4257 2.9252 -12.026 3.5752 -1.9501 0.6501 -3.9003 0.9752 -4.8754 -0.975 0 -0.325 -0.975 0 -0.65 0.6501Z" clip-rule="evenodd" stroke-width="1"></path><path fill="currentColor" fill-rule="evenodd" d="M68.2556 31.9349c-0.65 9.4258 13.0011 9.7508 16.5764 1.6251 1.6251 -3.2502 0.325 -7.1505 -0.9751 -6.8254 -0.9751 0.65 1.6251 1.9501 -0.325 6.1754 -3.2503 6.1756 -14.3012 6.5005 -14.3012 -0.9751 0 -0.325 -0.9751 -0.65 -0.9751 0Z" clip-rule="evenodd" stroke-width="1"></path><path fill="currentColor" fill-rule="evenodd" d="M75.2203 32.9419c-0.4643 -0.1725 -1.2338 0.2791 -1.4328 0.9821 -0.325 0.6501 0.8232 1.7618 1.7983 1.1117 1.2041 -0.8027 0.8676 -1.9342 -0.3655 -2.0938 0.325 0 0.325 0 0 0Z" clip-rule="evenodd" stroke-width="1"></path><path fill="currentColor" fill-rule="evenodd" d="M59.48 45.5866c3.2503 -3.9003 7.1506 -5.5254 10.7259 -1.6251 0.3251 0.65 1.3001 -0.0001 0.6501 -0.6501 -1.6251 -2.2752 -4.8754 -3.9003 -7.4756 -2.9252 -1.9502 0.9751 -3.5753 2.9252 -4.5504 4.5503 -0.6501 0.6501 0.325 0.9752 0.65 0.6501Z" clip-rule="evenodd" stroke-width="1"></path><path fill="currentColor" fill-rule="evenodd" d="M66.3056 45.5862c1.6251 0 1.6251 0.65 1.9501 0 0.325 -0.6501 -1.3001 -1.3001 -1.9501 -1.6252 -2.2752 -0.65 -4.2254 1.3002 -3.5753 1.9502 0.325 0.6501 0.9751 -0.325 3.5753 -0.325Z" clip-rule="evenodd" stroke-width="1"></path><path fill="currentColor" fill-rule="evenodd" d="M46.4789 28.684c2.2751 1.3001 4.8753 3.2503 7.8006 3.2503 3.2503 -0.3251 3.9003 -3.2502 2.9253 -3.5752 -1.3002 -0.3251 0.325 3.2502 -6.1756 0.975 -4.5504 -1.6251 -4.5504 -1.9501 -4.8754 -1.3001 0 0.325 0.3251 0.65 0.3251 0.65Z" clip-rule="evenodd" stroke-width="1"></path><path fill="currentColor" fill-rule="evenodd" d="M47.7789 35.836c0.65 0.65 1.9501 1.6251 3.2502 1.6251 5.5255 0.6501 6.1756 -6.8256 4.5505 -6.8256 -0.9751 0 0 1.9502 -1.6252 3.9004 -1.3001 1.6251 -4.2253 1.3001 -5.8505 0.325 -0.325 0 -0.9751 0.65 -0.325 0.9751Z" clip-rule="evenodd" stroke-width="1"></path><path fill="currentColor" d="M50.0542 33.8858c0.6501 0.65 1.9501 0 1.9501 -0.65 0 -0.325 -0.325 -0.6501 -0.65 -0.9752 -0.8851 -0.5668 -2.4721 0.4532 -1.3001 1.6252Z" stroke-width="1"></path><path fill="currentColor" fill-rule="evenodd" d="M86.1321 54.037c6.1755 6.5005 8.1256 17.2264 9.1007 26.0021 0 0.6501 0.9751 0.6501 0.9751 0 -0.9751 -10.7259 -1.3001 -19.1766 -9.4258 -26.6522 -0.6501 -0.6501 -1.3001 0 -0.65 0.6501Z" clip-rule="evenodd" stroke-width="1"></path><path fill="currentColor" fill-rule="evenodd" d="M82.6238 78.4743c-1.3001 -13.0011 -2.4837 -29.2737 -13.7179 -36.139 -5.8504 -3.5753 -13.001 -3.2503 -21.7768 4.2253 -0.325 0.325 -0.325 0.3251 0 0.6501 0.6501 0.65 0.9751 -0.3251 3.5754 -2.2752 10.4008 -7.4757 23.0769 -3.5753 27.6273 17.5515 1.6251 7.1506 2.6002 20.1516 2.6002 20.4767 0.325 0.65 0.975 0.65 1.3001 0 5.2004 -8.1257 7.3615 -19.3842 5.4113 -28.81 0 -0.65 -0.9751 -0.325 -0.9751 0.3251 0.9751 7.6639 -0.5136 15.0079 -4.0445 23.9955Z" clip-rule="evenodd" stroke-width="1"></path><path fill="currentColor" fill-rule="evenodd" d="M47.0832 46.669c-7.8006 9.1008 -7.1506 22.1019 -3.2502 33.1528 0.325 0.6501 1.4572 -0.4182 1.4572 -1.0682 -2.9253 -9.4258 -3.4074 -23.9589 2.4431 -31.4345 0.65 -0.6501 0 -0.9751 -0.6501 -0.6501Z" clip-rule="evenodd" stroke-width="1"></path><path fill="currentColor" fill-rule="evenodd" d="M44.7842 80.3708c11.701 -7.4756 15.2998 -12.2487 23.4255 -21.3494 0.325 -0.325 -0.3251 -0.9751 -0.6501 -0.6501 -5.5254 5.8505 -16.9572 15.489 -23.4577 20.3644 -0.9751 0.325 0.0323 1.9602 0.6823 1.6351Z" clip-rule="evenodd" stroke-width="1"></path><path fill="currentColor" fill-rule="evenodd" d="M31.2025 79.064c4.8754 0.325 3.9003 0.6501 12.026 0 0.6501 0 0.6501 -0.975 0 -0.975 -5.8505 -0.3251 -6.1755 -0.6501 -12.026 0 -0.65 0 -0.65 0.975 0 0.975Z" clip-rule="evenodd" stroke-width="1"></path><path fill="currentColor" fill-rule="evenodd" d="M48.4291 79.0644c18.2015 0.9751 20.8017 0 32.8277 0.3251 0.65 0 0.65 -0.9751 0 -0.9751 -19.1766 -0.9751 -19.5016 -0.325 -32.8277 -0.325 -0.6501 0 -0.6501 0.975 0 0.975Z" clip-rule="evenodd" stroke-width="1"></path><path fill="currentColor" fill-rule="evenodd" d="M84.4753 79.4646c2.9253 0.6501 2.2752 0.325 5.5255 0 0.65 0 0.65 -0.9751 0 -0.9751 -3.2503 -0.6501 -3.9003 -0.3251 -5.5255 0 -0.65 0 -0.65 0.9751 0 0.9751Z" clip-rule="evenodd" stroke-width="1"></path><path fill="currentColor" fill-rule="evenodd" d="M89.9408 79.0635c-11.7009 6.8256 -5.5255 3.2503 -16.9014 11.051 -0.6501 0.325 0 1.3001 0.6501 0.975 11.0509 -6.1755 13.3261 -8.4506 16.9014 -11.0509 0.325 -0.65 0 -1.3001 -0.6501 -0.9751Z" clip-rule="evenodd" stroke-width="1"></path><path fill="currentColor" fill-rule="evenodd" d="M90.294 79.0633c-0.325 3.5753 -0.325 3.9003 0.65 8.7757 0 0.6501 0.9751 0.6501 0.9751 0 0 -5.2004 0.325 -3.9002 -0.6501 -8.7757 0 -0.65 -0.975 -0.65 -0.975 0Z" clip-rule="evenodd" stroke-width="1"></path><path fill="currentColor" fill-rule="evenodd" d="M6.1758 29.6596c2.92525 0 8.1257 0.65 23.4019 1.3001 0.6501 0 0.6501 -0.9751 0 -0.9751 -9.4257 -0.9751 -11.7009 -1.9502 -23.72694 -1.3002 -0.32503 0 -0.32501 0.9752 0.32504 0.9752Z" clip-rule="evenodd" stroke-width="1"></path><path fill="currentColor" fill-rule="evenodd" d="M29.5775 33.8849c0 38.1418 -0.3792 1.5146 -0.0541 38.2426 -2.2752 1.6252 -2.2752 1.6252 -3.2503 1.9502 -1.9502 0.325 -4.2254 -0.3251 -3.9003 0.975 0 0.3251 0.325 0.3251 0.65 0.3251 1.3001 -0.325 2.2752 0 3.5753 0 1.3001 -0.325 1.6252 -0.3251 3.9004 -1.9502 1.3001 -0.65 0.0541 -35.9674 0.0541 -39.2176 0 -0.9751 -0.9751 -0.9751 -0.9751 -0.3251Z" clip-rule="evenodd" stroke-width="1"></path><path fill="currentColor" fill-rule="evenodd" d="M17.6141 44.5537c5.8504 -8.7757 5.8504 -8.7757 7.1505 -9.4257 2.2752 -1.3002 5.8505 -1.9502 5.2005 -2.9253 0 -0.325 -0.325 -0.325 -0.6501 -0.325 -5.8504 2.9252 -5.5254 -1.6251 -12.676 12.026 -0.3251 0.6501 0.65 1.3001 0.9751 0.65Z" clip-rule="evenodd" stroke-width="1"></path><path fill="currentColor" fill-rule="evenodd" d="M5.20037 34.2095c4.55038 0 11.70093 0.65 16.57633 0.975 -1.9501 13.9762 -0.65 26.3273 -0.65 39.3283 0 0.6501 0.9751 0.6501 0.9751 0 0.325 -5.5254 0.325 -24.3769 0.65 -28.2773 0.6501 -11.3759 1.3001 -12.026 0.6501 -12.6761 -0.6501 -0.9751 -16.25137 -0.65 -18.20153 -0.65 -0.65005 0.325 -0.65005 1.3001 0 1.3001Z" clip-rule="evenodd" stroke-width="1"></path><path fill="currentColor" fill-rule="evenodd" d="M3.57539 43.9609c5.20043 0.9751 7.80061 0.6501 12.35101 1.3001 -0.9751 9.4258 -0.325 15.9264 0.325 25.0272 0 2.2751 2.6003 3.5752 4.5504 4.8754 0.6501 0.325 0.9751 -0.3251 0.6501 -0.6501 -1.3001 -0.9751 -3.5753 -2.2752 -3.5753 -3.9003 0 -13.6511 -0.3251 -14.9513 0 -20.8018 0.325 -5.2004 0.65 -5.8505 -0.325 -6.1755 -4.2254 -0.325 -9.75085 -0.325 -13.00112 -0.65 -1.30011 0 -1.62514 0.975 -0.97509 0.975Z" clip-rule="evenodd" stroke-width="1"></path><path fill="currentColor" fill-rule="evenodd" d="M5.19228 75.7491c2.93751 0.1835 6.21542 0.6761 16.57282 -0.4748 0.6493 -0.0314 0.6022 -1.0053 -0.0471 -0.9739 -1.2986 0.0627 -5.5503 -0.3829 -9.7708 -0.1791 -2.27252 0.1097 -5.82798 0.6068 -6.47728 0.6382 -0.97395 0.047 -0.92694 1.0209 -0.27764 0.9896Z" clip-rule="evenodd" stroke-width="1"></path><path fill="currentColor" fill-rule="evenodd" d="M4.22561 80.0393c3.90033 0 14.30119 0.65 18.85159 0.975l0 2.9252c-7.1506 0 -12.6761 0 -19.17663 0.3251 -0.65006 0 -0.65006 0.9751 0 0.9751 19.50163 0 20.80173 1.3001 20.80173 -0.325 0 -3.5753 0.325 -5.2005 -0.9751 -5.2005 -7.1506 -0.9751 -13.3261 -0.9331 -19.50159 -0.9331 -0.32502 -0.325 -0.65005 1.2582 0 1.2582Z" clip-rule="evenodd" stroke-width="1"></path><path fill="currentColor" fill-rule="evenodd" d="M23.4021 80.3637c2.6002 -0.325 4.5504 0 6.8256 0s1.9501 -0.3251 1.9501 0.975c0 0.6501 0.3251 0.6501 -2.6002 1.6252 -5.2004 1.9501 -5.5254 1.6251 -5.5254 2.6001 0 0.3251 0.325 0.3251 0.65 0.3251 10.4009 -2.6002 9.7508 -2.2752 8.7757 -6.5006 -0.325 -0.975 -1.6251 -0.65 -3.2502 -0.65 -2.6003 0 -4.8754 0.325 -7.1506 0.9751 -0.325 -0.325 0 0.6501 0.325 0.6501Z" clip-rule="evenodd" stroke-width="1"></path><path fill="currentColor" fill-rule="evenodd" d="M1.95024 50.7873c1.95017 0 4.22536 0.325 6.50054 0.325C5.20051 57.9379 1.95022 67.3636 0.0000610352 74.1891c0 0.3251 0.0000198332 0.6501 0.3250469648 0.6501 0.650054 0.3251 0.325027 0.3251 3.250272 -7.4755C10.4009 49.8122 10.726 50.4622 10.0759 50.1372c-0.32501 -0.6501 0 -0.3251 -8.12566 -0.3251 -0.65005 0 -0.65005 0.9752 0 0.9752Z" clip-rule="evenodd" stroke-width="1"></path><path fill="currentColor" fill-rule="evenodd" d="M4.2255 81.0147c0.65006 -2.2752 1.95015 -5.2004 4.55036 -13.9761 2.60024 -8.1257 1.95014 -5.5255 1.62514 -16.5764 0 -0.325 -0.325 -0.3251 -0.65005 -0.3251 -0.65005 0 -0.32501 0.0001 -0.65004 6.8256 -0.32503 6.8256 -3.90031 12.026 -6.17549 24.052 0.32502 0.325 0.97506 0.6501 1.30008 0Z" clip-rule="evenodd" stroke-width="1"></path><path fill="currentColor" fill-rule="evenodd" d="M17.2263 71.2636c-4.2253 -0.3251 -3.5752 -0.6501 -10.40081 0.325 -0.65005 0 -0.65005 0.9751 0 0.9751 5.20041 0.325 5.20041 0.3251 10.40081 -0.325 0.6501 0 0.6501 -0.9751 0 -0.9751Z" clip-rule="evenodd" stroke-width="1"></path></svg>